PathFileType	4	(X/Y/Z)	C:\Users\WrightLab\Desktop\Jo\P1.2boxCal1-Unnamed.trc
DataRate	CameraRate	NumFrames	NumMarkers	Units	OrigDataRate	OrigDataStartFrame	OrigNumFrames
100.00	100.00	       41	0	mm	100.00	517	       827
Frame#	Time	
		

517	5.160	-670.54395	349.97632	1000.53308	89.50757	323.10391	-464.56522	-190.99921	360.40033	1306.81311	-213.47290	354.91077	983.13934	-655.59320	354.58447	1314.32593	-413.55292	312.06998	-187.05226				51.06550	332.44141	-141.58383	-383.18353	306.42270	-523.53741	
518	5.170	-670.61511	349.73627	1000.81885	89.53970	323.04141	-464.71869	-190.65149	360.49799	1306.54956	-213.32364	355.21658	982.95068	-655.68787	354.29617	1314.00391	-413.36603	311.86948	-187.01480				50.84482	332.47260	-141.60316	-383.15582	306.41296	-523.53760	
519	5.180	-670.82758	349.69849	1001.07452	89.46169	323.16333	-464.41736	-190.96777	360.37723	1306.82043	-213.34448	355.19614	982.97864	-655.67798	354.22903	1314.29797	-413.48956	311.91260	-187.06213				51.05234	332.10721	-141.32916	-383.15445	306.39862	-523.54681	
520	5.190	-670.84735	349.54138	1000.86456	89.62665	323.12717	-464.52539	-190.69942	360.55646	1306.66882	-213.19640	355.05215	982.98895	-655.66589	354.21686	1314.29553	-413.46616	312.17178	-187.33655				51.26491	332.05258	-141.31467	-383.17050	306.41068	-523.54242	
521	5.200	-670.62482	349.69946	1000.80133	89.55817	323.16251	-464.43207	-191.03787	360.49731	1306.74109	-213.21877	355.07916	982.98907	-655.51581	354.16843	1314.00830	-413.40042	312.00690	-187.34933				51.25741	332.05875	-141.30780	-383.16666	306.40155	-523.54761	
522	5.210	-670.81439	349.65219	1000.42712	89.53913	323.14200	-464.47845	-190.98068	360.40326	1306.81946	-213.21086	355.05096	982.98273	-655.75946	354.26974	1314.65808	-413.55484	312.08743	-187.04314				50.84380	332.48495	-141.61015	-383.14902	306.40024	-523.54456	
523	5.220	-670.61957	349.84207	1000.37604	89.44320	323.15027	-464.44611	-190.96236	360.38739	1306.79932	-213.20587	355.06564	982.97784	-655.75562	354.26184	1314.65417	-413.41077	312.01044	-186.98956				50.84917	332.48053	-141.62685	-383.74817	306.60019	-524.07605	
524	5.230	-670.55591	349.99911	1000.54108	89.50251	323.12671	-464.51016	-190.98943	360.36987	1306.80981	-213.22627	355.06665	983.00104	-655.75470	354.27274	1314.65991	-413.55066	312.07455	-187.04729				51.06907	332.45468	-141.58002	-383.16226	306.39960	-523.54791	
525	5.240	-670.55890	349.88583	1000.98340	89.52103	323.14349	-464.47253	-190.95816	360.36758	1306.81360	-213.20354	355.05463	982.98340	-655.75208	354.36337	1314.25964	-413.50986	311.91132	-187.06538				50.86681	332.47446	-141.61035	-383.17581	306.41980	-523.53760	
526	5.250	-670.83685	349.55017	1000.86621	89.57453	323.11304	-464.55228	-190.91356	360.31375	1306.69971	-213.33966	355.21866	982.94781	-655.75519	354.36349	1314.26294	-413.36456	311.75601	-187.03790				50.86230	332.49146	-141.60211	-383.50504	306.35651	-523.90759	
527	5.260	-670.55707	349.86841	1000.97711	89.62100	323.10742	-464.57178	-190.90735	360.32880	1306.68738	-213.47131	354.91135	983.13000	-655.74408	354.37003	1314.26648	-413.36938	311.87518	-187.00839				50.90499	332.29578	-141.45024	-383.17120	306.41586	-523.53918	
528	5.270	-670.84595	349.53320	1000.85779	89.58515	323.04904	-464.70645	-190.90340	360.33572	1306.69934	-213.36122	355.20493	982.96661	-655.58521	354.58792	1314.32800	-413.55258	312.08072	-187.04445				51.05270	332.45917	-141.61662	-383.60934	306.71555	-523.89056	
529	5.280	-670.82745	349.53983	1000.86871	89.57890	323.12772	-464.51782	-190.91310	360.31393	1306.70190	-213.32506	355.21179	982.96771	-655.76746	354.35202	1314.25696	-413.50336	311.90869	-187.06572				50.89389	332.31586	-141.48520	-383.73074	306.59433	-524.07605	
530	5.290	-670.61481	349.71713	1000.81073	89.46995	323.05154	-464.68533	-190.86691	360.31586	1306.68970	-213.33148	355.21536	982.96808	-655.52350	354.52451	1314.07544	-413.36566	311.87225	-187.01099				51.03890	332.09808	-141.34560	-383.18445	306.42056	-523.53900	
531	5.300	-670.83282	349.54007	1000.85999	89.73079	323.04297	-464.74014	-190.90509	360.35489	1306.69934	-213.58383	355.04071	983.10394	-655.66351	354.22192	1314.29688	-413.49146	311.90945	-187.06450				50.91697	332.31372	-141.45421	-383.17743	306.43021	-523.53107	
532	5.310	-670.81989	349.66840	1001.06567	89.58901	323.05261	-464.69843	-190.95493	360.41550	1306.64111	-213.20692	355.07611	982.99310	-655.53241	354.25018	1313.71460	-413.48962	311.91995	-187.06154				51.24795	332.06000	-141.32072	-383.48541	306.35995	-523.90088	
533	5.320	-670.58569	349.85413	1000.38025	89.51669	323.01331	-464.78278	-191.07581	360.49680	1306.74463	-213.49886	354.90247	983.13983	-655.67371	354.20578	1314.29077	-413.49292	311.91434	-187.06282				51.04135	332.10297	-141.35300	-383.16687	306.41449	-523.53906	
534	5.330	-670.84076	349.53738	1000.85815	89.60680	323.14484	-464.48062	-190.96474	360.37866	1306.82434	-213.21895	355.06537	982.98029	-655.51056	354.15720	1314.00122	-413.37216	311.87091	-187.01064				51.23909	332.05127	-141.32069	-383.18396	306.41125	-523.54504	
535	5.340	-670.53522	350.00861	1000.54431	89.52660	323.11169	-464.54916	-190.97647	360.37616	1306.82312	-213.47435	354.92969	983.13214	-655.59253	354.49759	1314.72852	-413.36069	311.75961	-187.03954				51.21584	332.19897	-141.47835	-383.17859	306.42065	-523.53766	
536	5.350	-670.58313	349.83740	1000.37183	89.50080	323.13947	-464.47946	-190.97083	360.39038	1306.81213	-213.34364	355.21454	982.97577	-655.59283	354.57278	1314.32678	-413.55353	312.07419	-187.04877				50.84820	332.48328	-141.61594	-383.17783	306.41638	-523.54028	
537	5.360	-670.82684	349.54111	1000.86029	89.56062	323.09131	-464.60233	-190.91821	360.33112	1306.69604	-213.35706	355.20203	982.95496	-655.53021	354.25543	1313.72009	-413.50681	311.91132	-187.06410				51.05581	332.10831	-141.34270	-383.18417	306.41138	-523.54504	
538	5.370	-670.62830	349.72559	1000.81329	89.63515	323.11264	-464.56125	-191.07205	360.51639	1306.75549	-213.20311	355.08447	982.98846	-655.75684	354.36191	1314.25977	-413.40698	312.01135	-187.34563				51.04452	332.10352	-141.34605	-383.49939	306.35153	-523.90961	
539	5.380	-670.77985	349.81549	1000.64465	89.58353	323.16595	-464.42712	-190.94684	360.37076	1306.80872	-213.20813	355.07104	983.01532	-655.75024	354.26868	1314.65930	-413.37564	311.87717	-187.00740				50.85213	332.48651	-141.60634	-383.18433	306.41275	-523.54419	
540	5.390	-670.83051	349.65955	1000.42786	89.51849	323.07898	-464.62619	-190.99890	360.37741	1306.83154	-213.21463	355.07587	982.99426	-655.74554	354.35953	1314.26160	-413.41119	312.01001	-186.99094				50.84880	332.47672	-141.59662	-383.15430	306.40646	-523.54163	
541	5.400	-670.84076	349.53693	1000.86353	89.62948	323.12433	-464.53259	-190.95050	360.39984	1306.82300	-213.22639	355.06479	983.00928	-655.75226	354.35632	1314.25989	-413.49759	311.91641	-187.06854				50.84842	332.47427	-141.60292	-383.19183	306.40649	-523.54999	
542	5.410	-670.82056	349.64233	1000.42194	89.58590	323.07819	-464.63699	-190.96541	360.37756	1306.80945	-213.19510	355.09207	982.99542	-655.76422	354.26883	1314.65515	-413.41626	312.00140	-186.99916				51.07193	332.44562	-141.58449	-383.17313	306.41248	-523.54181	
543	5.420	-670.85986	349.53363	1000.85730	89.47784	323.09058	-464.59320	-190.98410	360.37625	1306.80884	-213.21010	355.07324	982.98926	-655.74341	354.37015	1314.26196	-413.41214	312.00952	-186.99544				50.85373	332.46960	-141.60190	-383.60321	306.71027	-523.89264	
544	5.430	-670.60797	349.72809	1000.81543	89.48094	323.12000	-464.52332	-190.91832	360.31519	1306.68762	-213.22293	355.07516	982.99561	-655.74420	354.37094	1314.26477	-413.40378	312.00397	-186.99274				50.85100	332.47049	-141.60808	-383.17410	306.41241	-523.54211	
545	5.440	-670.82971	349.53104	1000.86115	89.56018	323.15457	-464.45120	-190.90915	360.32529	1306.68335	-213.62065	355.05115	983.10980	-655.60254	354.31497	1313.97156	-413.38605	311.86194	-187.01424				50.93848	332.33377	-141.45337	-383.15829	306.41473	-523.53699	
546	5.450	-670.80920	349.64670	1000.42157	89.54863	323.22464	-464.28244	-190.60307	360.48785	1306.56213	-213.33688	355.22739	982.96692	-655.75891	354.35791	1314.25916	-413.40363	312.00519	-186.98904				50.86980	332.49274	-141.61739	-383.16556	306.42154	-523.53412	
547	5.460	-670.57642	349.89297	1000.98303	89.72580	323.26340	-464.21323	-190.95061	360.40259	1306.82080	-213.20573	355.07202	982.99121	-655.60107	354.57425	1314.32422	-413.55383	312.08420	-187.04747				51.06475	332.42642	-141.58221	-383.17236	306.40213	-523.54852	
548	5.470	-670.53656	350.02353	1000.55438	89.44760	323.12442	-464.50842	-190.71533	360.56985	1306.68469	-213.45663	354.90775	983.12488	-655.73804	354.35635	1314.26270	-413.37134	311.86612	-187.01317				50.86052	332.47916	-141.60625	-383.15970	306.41156	-523.53943	
549	5.480	-670.61536	349.72281	1000.81226	89.52798	323.09546	-464.58813	-190.91859	360.32111	1306.69226	-213.34999	355.19965	982.95447	-655.73798	354.35056	1314.25879	-413.55161	312.07227	-187.05070				50.85125	332.47690	-141.60187	-383.16083	306.41397	-523.53809	
550	5.490	-670.82312	349.54523	1000.86676	89.51525	323.16492	-464.42065	-190.90118	360.32214	1306.68738	-213.31522	355.19531	982.95911	-655.50580	354.51874	1314.07214	-413.54666	312.08264	-187.04269				51.20218	332.19177	-141.48505	-383.15930	306.41479	-523.53717	
551	5.500	-670.61420	349.71146	1000.80676	89.66719	323.14496	-464.48831	-190.96297	360.38943	1306.80933	-213.20702	355.06595	982.99341	-655.76154	354.36395	1314.26196	-413.63510	311.88574	-187.14122				51.11955	332.27109	-141.42776	-383.16785	306.40854	-523.54327	
552	5.510	-670.62335	349.83749	1000.37384	89.58675	323.04562	-464.71481	-190.98175	360.37619	1306.80994	-213.48380	354.93027	983.12939	-655.75726	354.27179	1314.65369	-413.69928	312.16766	-186.91646				50.86216	332.46771	-141.58904	-383.18292	306.42291	-523.53711	
553	5.520	-670.84058	349.52414	1000.85718	89.53486	323.24014	-464.24359	-190.89949	360.34164	1306.70215	-213.30591	355.19363	982.96503	-655.67957	354.30756	1314.00854	-413.49805	311.91727	-187.06277				50.85258	332.47586	-141.61484	-383.16614	306.40784	-523.54333	
554	5.530	-670.81012	349.68869	1001.07532	89.54722	323.07892	-464.63013	-191.05788	360.49164	1306.74121	-213.48479	354.91101	983.12982	-655.52130	354.25461	1313.71753	-413.49844	311.91177	-187.06293				51.25826	332.05881	-141.32082	-383.49423	306.36475	-523.89972	
555	5.540	-670.83405	349.64667	1000.42175	89.63543	323.09424	-464.60516	-190.70613	360.55359	1306.67590	-213.47005	354.90829	983.11707	-655.74353	354.28021	1314.66260	-413.64001	311.99628	-186.93442				51.05829	332.43982	-141.59258	-383.17325	306.41315	-523.54144	
556	5.550	-670.59644	349.84274	1000.37366	89.55814	323.13467	-464.49847	-190.98395	360.37314	1306.81934	-213.46751	354.91422	983.12012	-655.74451	354.36478	1314.26221	-413.36420	311.75385	-187.03844				50.85468	332.48856	-141.61798	-383.47928	306.36316	-523.89740	
557	5.560	-670.79883	349.81555	1000.63818	89.56479	323.10199	-464.57739	-190.93163	360.36932	1306.81824	-213.21472	355.08960	982.99432	-655.77277	354.25516	1314.65259	-413.63516	311.99216	-186.93710				51.06021	332.43579	-141.57288	-383.49805	306.37311	-523.89502	
